<svg xmlns="http://www.w3.org/2000/svg" width="1600" height="900" viewBox="0 0 1600 900">
<defs>
<marker id="arrow" markerWidth="12" markerHeight="12" refX="10" refY="4" orient="auto" markerUnits="strokeWidth"><path d="M0,0 L0,8 L11,4 z" fill="#334155"/></marker>
<filter id="shadow" x="-10%" y="-10%" width="120%" height="130%"><feDropShadow dx="0" dy="8" stdDeviation="8" flood-color="#0f172a" flood-opacity="0.13"/></filter>
<style>
.title{font:700 36px Arial,sans-serif;fill:#0f172a}.subtitle{font:400 18px Arial,sans-serif;fill:#475569}
.h{font:700 20px Arial,sans-serif;fill:#0f172a}.b{font:400 16px Arial,sans-serif;fill:#334155}.s{font:400 14px Arial,sans-serif;fill:#475569}
.metric{font:700 26px Arial,sans-serif;fill:#0f172a}.tiny{font:400 12px Arial,sans-serif;fill:#64748b}
.card{filter:url(#shadow)}.arrow{stroke:#334155;stroke-width:3;fill:none;marker-end:url(#arrow)}.dash{stroke:#64748b;stroke-width:2.5;stroke-dasharray:8 7;fill:none;marker-end:url(#arrow)}
</style>
</defs>
<rect width="1600" height="900" fill="#f8fafc"/>
<text x="800.0" y="58" text-anchor="middle" class="title">Microservice-Based System Architecture</text>
<text x="800.0" y="90" text-anchor="middle" class="subtitle">Frontend, API gateway, forecasting, training, explainability, and advanced AI services</text>
<rect x="90" y="360" width="240" height="130" rx="16" fill="#dbeafe" stroke="#2563eb" stroke-width="2" class="card"/>
<text x="210.0" y="396" text-anchor="middle" class="h">Frontend Service</text>
<text x="210.0" y="428" text-anchor="middle" class="b">dashboard, forecast,</text>
<text x="210.0" y="449" text-anchor="middle" class="b">analytics, explainability</text>
<text x="210.0" y="470" text-anchor="middle" class="b">pages</text>
<rect x="455" y="360" width="240" height="130" rx="16" fill="#fef3c7" stroke="#d97706" stroke-width="2" class="card"/>
<text x="575.0" y="396" text-anchor="middle" class="h">API Gateway</text>
<text x="575.0" y="428" text-anchor="middle" class="b">single entry point and</text>
<text x="575.0" y="449" text-anchor="middle" class="b">route handling</text>
<rect x="850" y="170" width="260" height="105" rx="16" fill="#dcfce7" stroke="#16a34a" stroke-width="2" class="card"/>
<text x="980.0" y="206" text-anchor="middle" class="h">Forecast Service</text>
<text x="980.0" y="238" text-anchor="middle" class="b">REST endpoint and project</text>
<text x="980.0" y="259" text-anchor="middle" class="b">logic</text>
<rect x="850" y="330" width="260" height="105" rx="16" fill="#ccfbf1" stroke="#0f766e" stroke-width="2" class="card"/>
<text x="980.0" y="366" text-anchor="middle" class="h">Training Service</text>
<text x="980.0" y="398" text-anchor="middle" class="b">REST endpoint and project</text>
<text x="980.0" y="419" text-anchor="middle" class="b">logic</text>
<rect x="850" y="490" width="260" height="105" rx="16" fill="#fce7f3" stroke="#db2777" stroke-width="2" class="card"/>
<text x="980.0" y="526" text-anchor="middle" class="h">Explainability Service</text>
<text x="980.0" y="558" text-anchor="middle" class="b">REST endpoint and project</text>
<text x="980.0" y="579" text-anchor="middle" class="b">logic</text>
<rect x="850" y="650" width="260" height="105" rx="16" fill="#ede9fe" stroke="#7c3aed" stroke-width="2" class="card"/>
<text x="980.0" y="686" text-anchor="middle" class="h">Advanced AI Service</text>
<text x="980.0" y="718" text-anchor="middle" class="b">REST endpoint and project</text>
<text x="980.0" y="739" text-anchor="middle" class="b">logic</text>
<rect x="1240" y="240" width="260" height="135" rx="16" fill="#f1f5f9" stroke="#cbd5e1" stroke-width="2" class="card"/>
<text x="1370.0" y="276" text-anchor="middle" class="h">Data Store</text>
<text x="1370.0" y="308" text-anchor="middle" class="b">data/raw C1-C8 CSV files</text>
<rect x="1240" y="505" width="260" height="135" rx="16" fill="#ffedd5" stroke="#ea580c" stroke-width="2" class="card"/>
<text x="1370.0" y="541" text-anchor="middle" class="h">Model Store</text>
<text x="1370.0" y="573" text-anchor="middle" class="b">artifacts/models folders</text>
<path class="arrow" d="M330 425 L455 425"/>
<path class="arrow" d="M695 425 L850 222"/>
<path class="arrow" d="M1110 222 L1240 307"/>
<path class="arrow" d="M695 425 L850 382"/>
<path class="arrow" d="M1110 382 L1240 307"/>
<path class="arrow" d="M695 425 L850 542"/>
<path class="arrow" d="M1110 542 L1240 572"/>
<path class="arrow" d="M695 425 L850 702"/>
<path class="arrow" d="M1110 702 L1240 572"/>
</svg>